<?xml version="1.0" standalone="no"?>
<!DOCTYPE svg PUBLIC "-//W3C//DTD SVG 20010904//EN"
 "http://www.w3.org/TR/2001/REC-SVG-20010904/DTD/svg10.dtd">
<svg version="1.0" xmlns="http://www.w3.org/2000/svg"
 width="512.000000pt" height="512.000000pt" viewBox="0 0 512.000000 512.000000"
 preserveAspectRatio="xMidYMid meet">

<g transform="translate(0.000000,512.000000) scale(0.100000,-0.100000)"
fill="#000000" stroke="none">
<path d="M2709 5101 c-149 -58 -304 -197 -376 -336 -80 -154 -123 -380 -108
-563 l7 -83 26 5 c229 47 529 31 761 -39 47 -14 87 -25 89 -25 10 0 -12 201
-29 270 -35 137 -70 191 -216 335 -134 133 -171 184 -180 254 -6 47 16 120 52
167 14 19 25 34 23 34 -2 -1 -24 -9 -49 -19z"/>
<path d="M856 4428 c-37 -104 -46 -151 -46 -253 0 -233 92 -428 302 -639 l108
-109 62 84 c125 168 303 325 483 427 50 28 97 56 105 61 13 7 11 13 -10 36
-43 46 -142 121 -210 158 -116 64 -160 72 -385 72 -186 0 -203 2 -240 22 -74
40 -125 114 -125 183 0 50 -16 34 -44 -42z"/>
<path d="M4227 4494 c-4 -4 -7 -18 -7 -31 0 -62 -54 -138 -125 -176 -37 -20
-54 -22 -240 -22 -224 0 -268 -8 -385 -72 -87 -47 -230 -162 -230 -185 0 -4
28 -22 63 -39 197 -100 395 -271 546 -473 l51 -69 108 109 c160 161 252 316
288 483 20 95 18 233 -5 322 -23 90 -54 163 -64 153z"/>
<path d="M2430 4004 c-365 -44 -642 -174 -887 -415 -209 -204 -356 -480 -409
-770 -27 -143 -25 -412 4 -546 124 -576 559 -1011 1134 -1135 135 -29 403 -31
548 -4 435 80 817 361 1022 753 65 125 119 280 144 414 27 143 25 412 -4 546
-109 504 -456 904 -937 1078 -144 52 -268 75 -435 79 -80 3 -161 2 -180 0z"/>
<path d="M4060 3108 c0 -2 11 -42 25 -89 70 -232 86 -532 39 -761 l-5 -26 83
-7 c102 -8 278 8 378 36 41 11 117 40 169 65 78 38 108 60 181 132 86 86 143
170 174 260 l15 42 -33 -25 c-47 -36 -120 -58 -167 -52 -70 9 -121 46 -254
180 -144 146 -198 181 -335 216 -69 17 -270 39 -270 29z"/>
<path d="M697 2890 c-113 -13 -218 -44 -326 -96 -154 -75 -300 -236 -355 -392
l-15 -42 33 25 c47 36 120 58 167 52 70 -9 121 -46 254 -180 144 -147 197
-181 336 -216 71 -18 269 -40 269 -29 0 2 -11 42 -25 89 -63 206 -83 492 -50
694 8 49 13 91 11 92 -8 9 -231 11 -299 3z"/>
<path d="M1112 1584 c-210 -211 -302 -406 -302 -639 0 -102 9 -149 46 -252 28
-77 44 -93 44 -43 0 69 51 143 125 183 37 20 54 22 240 22 225 0 269 8 385 72
68 37 167 112 210 158 21 23 23 29 10 36 -8 5 -55 33 -105 61 -180 102 -358
259 -483 427 l-62 84 -108 -109z"/>
<path d="M3858 1637 c-133 -191 -356 -386 -555 -486 -35 -17 -63 -35 -63 -39
0 -23 143 -138 230 -185 117 -64 161 -72 385 -72 186 0 203 -2 240 -22 72 -38
125 -114 125 -177 0 -50 19 -34 44 37 37 103 46 150 46 252 0 161 -45 302
-142 451 -50 76 -195 237 -248 274 l-26 18 -36 -51z"/>
<path d="M2015 963 c9 -121 35 -228 77 -313 26 -51 61 -93 165 -195 134 -133
171 -184 180 -254 6 -47 -16 -120 -52 -167 l-25 -33 42 15 c147 51 311 197
385 339 80 154 123 380 108 563 l-7 83 -26 -5 c-229 -47 -529 -31 -761 39 -47
14 -87 25 -89 25 -2 0 -1 -44 3 -97z"/>
</g>
</svg>
