<?xml version="1.0" standalone="no"?>
<!DOCTYPE svg PUBLIC "-//W3C//DTD SVG 20010904//EN"
 "http://www.w3.org/TR/2001/REC-SVG-20010904/DTD/svg10.dtd">
<svg version="1.0" xmlns="http://www.w3.org/2000/svg"
 width="512.000000pt" height="512.000000pt" viewBox="0 0 512.000000 512.000000"
 preserveAspectRatio="xMidYMid meet">
<metadata>
Created by potrace 1.16, written by Peter Selinger 2001-2019
</metadata>
<g transform="translate(0.000000,512.000000) scale(0.100000,-0.100000)"
fill="#000000" stroke="none">
<path d="M2345 4010 c-670 -60 -1270 -337 -1734 -801 -166 -166 -322 -367
-420 -540 -24 -43 -31 -67 -31 -110 0 -49 6 -65 59 -152 106 -173 227 -325
395 -492 243 -242 433 -379 741 -531 755 -373 1639 -374 2400 -5 305 148 508
293 751 535 167 168 290 320 395 493 53 87 59 103 59 152 0 61 -19 101 -122
253 -389 579 -1024 1004 -1713 1146 -237 49 -565 71 -780 52z m330 -464 c137
-11 312 -76 446 -166 81 -54 202 -176 258 -259 56 -83 114 -206 143 -306 20
-70 23 -102 23 -255 0 -198 -13 -265 -84 -416 -152 -323 -466 -545 -811 -572
-304 -25 -578 75 -791 287 -124 125 -211 273 -261 446 -20 70 -23 102 -23 255
0 153 3 185 23 255 50 173 138 322 261 446 125 124 278 213 445 259 76 21 225
39 276 34 14 -2 57 -5 95 -8z"/>
<path d="M2390 3224 c-79 -21 -186 -74 -257 -128 -106 -80 -201 -229 -238
-371 -20 -78 -20 -252 0 -330 37 -142 132 -291 238 -371 132 -100 263 -144
427 -144 126 0 196 16 305 70 140 69 236 165 305 305 54 109 70 179 70 305 0
121 -16 193 -64 295 -88 185 -250 318 -451 370 -76 19 -260 19 -335 -1z"/>
</g>
</svg>
