<?xml version="1.0" standalone="no"?>
<!DOCTYPE svg PUBLIC "-//W3C//DTD SVG 20010904//EN"
 "http://www.w3.org/TR/2001/REC-SVG-20010904/DTD/svg10.dtd">
<svg version="1.0" xmlns="http://www.w3.org/2000/svg"
 width="512.000000pt" height="512.000000pt" viewBox="0 0 512.000000 512.000000"
 preserveAspectRatio="xMidYMid meet">
<metadata>
Created by potrace 1.16, written by Peter Selinger 2001-2019
</metadata>
<g transform="translate(0.000000,512.000000) scale(0.100000,-0.100000)"
fill="#000000" stroke="none">
<path d="M3985 4526 c-16 -8 -133 -117 -259 -244 l-229 -230 -81 30 c-116 43
-312 95 -446 119 -146 27 -515 37 -671 20 -610 -69 -1199 -372 -1728 -886
-211 -206 -376 -398 -507 -592 l-66 -96 4 -96 3 -96 63 -93 c107 -157 259
-339 425 -508 134 -138 207 -204 396 -361 l26 -22 -201 -203 c-181 -182 -202
-207 -208 -244 -13 -78 22 -147 93 -184 33 -17 112 -15 147 3 16 9 799 787
1741 1729 1557 1559 1713 1717 1723 1756 35 136 -99 255 -225 198z m-1213
-1068 c48 -11 90 -23 92 -27 3 -4 -51 -63 -119 -131 l-125 -124 -81 -3 c-316
-8 -572 -264 -583 -581 l-3 -84 -123 -123 c-68 -68 -127 -122 -131 -119 -4 2
-17 46 -30 97 -32 132 -30 297 4 429 99 377 412 646 807 692 63 7 203 -5 292
-26z"/>
<path d="M3717 3372 l-358 -358 31 -63 c101 -203 111 -479 25 -706 -95 -252
-310 -457 -570 -544 -219 -72 -438 -61 -656 33 l-77 33 -318 -318 -318 -318
59 -27 c143 -64 370 -136 530 -169 227 -47 574 -59 802 -30 596 78 1166 377
1687 885 209 204 408 438 525 620 40 62 41 65 41 155 l0 92 -57 84 c-227 338
-552 677 -891 931 -43 32 -82 58 -87 58 -6 0 -171 -161 -368 -358z"/>
<path d="M2736 2391 c-208 -208 -376 -383 -372 -389 19 -31 197 -47 303 -28
233 41 429 227 484 456 24 101 7 326 -26 337 -6 2 -181 -167 -389 -376z"/>
</g>
</svg>
